HIERARCHY
ROOT Hips
{
  OFFSET -2.79839 44.0426 8.93181
  CHANNELS 6 Xposition Yposition Zposition Zrotation Xrotation Yrotation
  JOINT ToSpine
  {
    OFFSET -2.69724 7.43032 -0.144315
    CHANNELS 3 Zrotation Xrotation Yrotation
    JOINT Spine
    {
      OFFSET -0.0310711 10.7595 1.96963
      CHANNELS 3 Zrotation Xrotation Yrotation
      JOINT Spine1
      {
        OFFSET 13.1342 3.43533 0.764692
        CHANNELS 3 Zrotation Xrotation Yrotation
        JOINT Neck
        {
          OFFSET 29.8703 7.82586 -0.130764
          CHANNELS 3 Zrotation Xrotation Yrotation
          JOINT Head
          {
            OFFSET 9.52751 0.295786 -0.907742
            CHANNELS 3 Zrotation Xrotation Yrotation
            End Site
            {
              OFFSET 16.4037 0.713936 2.7358
            }
          }
        }
        JOINT LeftShoulder
        {
          OFFSET 27.5574 4.95586 2.47156
          CHANNELS 3 Zrotation Xrotation Yrotation
          JOINT LeftArm
          {
            OFFSET 1.20734 -0.998971 20.1238
            CHANNELS 3 Zrotation Xrotation Yrotation
            JOINT LeftForeArm
            {
              OFFSET 26.8049 -0.0536703 -0.155908
              CHANNELS 3 Zrotation Xrotation Yrotation
              JOINT LeftHand
              {
                OFFSET 26.6817 0 0.320147
                CHANNELS 3 Zrotation Xrotation Yrotation
                End Site
                {
                  OFFSET 18.6119 0 0.382219
                }
              }
            }
          }
        }
        JOINT RightShoulder
        {
          OFFSET 27.5927 4.71444 -2.65209
          CHANNELS 3 Zrotation Xrotation Yrotation
          JOINT RightArm
          {
            OFFSET 2.83739 -1.17114 -18.7564
            CHANNELS 3 Zrotation Xrotation Yrotation
            JOINT RightForeArm
            {
              OFFSET 28.839 -0.0548439 1.22491
              CHANNELS 3 Zrotation Xrotation Yrotation
              JOINT RightHand
              {
                OFFSET 26.5114 0 -0.101894
                CHANNELS 3 Zrotation Xrotation Yrotation
                End Site
                {
                  OFFSET 18.2168 0 0
                }
              }
            }
          }
        }
      }
    }
  }
  JOINT LeftUpLeg
  {
    OFFSET -4.76168 -1.9167 -10.2353
    CHANNELS 3 Zrotation Xrotation Yrotation
    JOINT LeftLeg
    {
      OFFSET 2.55951 -42.0585 -8.02213
      CHANNELS 3 Zrotation Xrotation Yrotation
      JOINT LeftFoot
      {
        OFFSET 3.16357 -42.5282 -3.95426
        CHANNELS 3 Zrotation Xrotation Yrotation
        JOINT LeftToeBase
        {
          OFFSET 0.346054 -6.02161 12.8035
          CHANNELS 3 Zrotation Xrotation Yrotation
          End Site
          {
            OFFSET 0.134235 -1.35082 5.13018
          }
        }
      }
    }
  }
  JOINT RightUpLeg
  {
    OFFSET -4.94151 -1.41743 10.6446
    CHANNELS 3 Zrotation Xrotation Yrotation
    JOINT RightLeg
    {
      OFFSET -2.56294 -42.0364 -7.94377
      CHANNELS 3 Zrotation Xrotation Yrotation
      JOINT RightFoot
      {
        OFFSET -3.0952 -42.555 -4.02241
        CHANNELS 3 Zrotation Xrotation Yrotation
        JOINT RightToeBase
        {
          OFFSET -0.0828122 -6.13587 12.8035
          CHANNELS 3 Zrotation Xrotation Yrotation
          End Site
          {
            OFFSET -0.131328 -1.35082 5.13018
          }
        }
      }
    }
  }
}
MOTION
Frames:	18
Frame Time:	0.0333333
-30.2115 74.6024 -22.7241 78.8238 -29.0295 -3.91597 -70.1915 0 88.8779 149.746 56.3999 -66.7815 -6.86908 22.5946 8.09535 -135.126 39.2858 157.591 -175.352 81.0413 -134.843 0.501374 -13.4125 -27.0891 -75.6172 51.8108 -68.3507 14.1075 21.6451 -33.8054 0.420957 0.000575534 0.35866 -2.17126 6.67656 46.8268 -82.216 -14.7564 91.7666 0.661248 -0.600672 51.8865 0.58676 0.000331156 0.0646653 -7.74553 2.67382 94.2623 -148.265 79.6223 133.763 1.91612 -12.0834 -1.09266 2.11812 -7.19248 9.61672 -11.1165 -6.44337 78.7716 3.23194 45.2632 8.79882 -1.28292 15.2615 -0.681529 0.27221 7.66377 -5.23323 
-27.6153 72.6723 -17.9948 78.773 -25.6441 -2.66023 -70.1915 0 88.8779 151.739 53.9607 -67.9266 -8.22298 22.5475 8.295 -135.734 39.9531 155.997 -172.606 81.963 -137.027 0.535339 -13.369 -26.1767 -73.7902 49.7293 -68.5157 14.1328 20.2241 -35.6043 0.420957 0.000575534 0.35866 -2.17451 6.80312 46.2771 -84.199 -14.5995 91.281 5.7503 -4.96834 49.6244 0.58676 0.000331156 0.0646653 -4.08727 2.77069 90.1779 -159.365 72.0486 140.36 1.68775 -8.97689 -0.883871 2.31354 -7.72518 10.5089 -5.07102 -6.35824 81.0917 4.08733 59.7393 -2.09411 -13.5521 10.4359 2.31291 -0.46795 -3.27996 6.2428 
-25.2211 71.0428 -13.9911 79.4376 -24.9037 -1.87123 -70.1915 0 88.8779 154.418 51.1621 -70.4452 -8.75422 23.017 8.36752 -138.579 40.8372 156.686 -171.244 82.4716 -139.686 0.514607 -13.4999 -26.1662 -74.5533 48.0864 -66.9381 14.4457 19.7327 -36.8731 0.420957 0.000575534 0.35866 -2.44063 7.62641 46.2052 -83.2792 -12.5304 93.6113 5.54882 -5.53968 45.5281 0.58676 0.000331156 0.0646653 -3.54645 4.11669 87.3128 -162.476 67.2482 140.99 -1.45482 -9.85301 -0.807434 3.5275 -10.1185 12.5476 -2.73722 -5.7845 81.3754 6.52914 66.9816 -3.00173 -9.14493 5.06417 1.341 0.235867 2.47931 -2.94563 
-23.3839 69.6053 -10.5239 79.5544 -23.5141 -1.51554 -70.1915 0 88.8779 155.495 50.5803 -71.6842 -7.48654 22.7325 9.25806 -139.631 41.6685 157.796 -176.592 82.8447 -134.762 0.483292 -13.6758 -26.2614 -71.7487 46.9431 -68.4777 14.1743 19.4684 -36.6875 0.420957 0.000575534 0.35866 -2.45376 7.76818 45.7872 -82.777 -10.7219 95.6121 6.56766 -7.56796 41.4455 0.58676 0.000331156 0.0646653 -2.98062 5.27021 85.8116 -165.077 61.8097 144.36 -2.77403 -8.14942 -0.57265 5.37275 -13.1007 12.7968 -0.565046 -7.04871 80.2644 9.00441 71.5301 -5.08362 -11.4955 3.81728 1.7203 1.2683 -1.76894 -7.23236 
-20.9168 67.5613 -7.25325 79.9673 -22.7905 -1.40764 -70.1915 0 88.8779 157.423 49.5443 -73.0885 -7.65685 23.2625 9.61229 -140.308 42.7528 158.329 -176.52 83.7893 -135.136 0.381405 -14.175 -26.8382 -68.9162 46.0432 -69.6365 13.6228 19.1743 -35.9625 0.420957 0.000575534 0.35866 -2.31481 7.62907 44.597 -81.1433 -9.36527 97.4803 6.0233 -8.19152 36.8097 0.58676 0.000331156 0.0646653 -4.40706 6.34419 84.9768 -167.102 54.6074 146.499 -2.43036 -4.47193 -0.221885 9.49204 -19.6066 8.97275 2.2226 -7.97225 80.2358 16.6516 78.146 -11.0237 -8.92534 -0.813887 1.30405 2.95486 1.98071 -17.9066 
-18.6283 65.4386 -4.56333 80.1408 -22.9579 -0.894854 -70.1915 0 88.8779 159.277 48.4989 -72.9675 -7.31734 23.826 8.46553 -141.195 43.4698 159.627 175.796 83.9514 -127.403 0.465782 -13.7254 -26.5542 -68.741 45.6529 -68.6957 13.9063 19.4549 -36.1606 0.420957 0.000575534 0.35866 -2.42374 8.15914 43.9062 -80.5266 -8.47361 98.6619 6.0191 -9.40942 33.0765 0.58676 0.000331156 0.0646653 -6.87066 7.71442 83.9026 -167.937 48.7123 144.151 -4.83316 -0.820777 0.436305 10.8037 -21.785 8.51847 4.6621 -7.37131 79.7369 35.8593 84.1949 -34.6647 -9.83661 -4.16332 1.39002 1.92126 1.15031 -12.0283 
-16.5705 63.224 -2.16829 80.0477 -22.4662 -0.55783 -70.1915 0 88.8779 160.692 47.9159 -72.9213 -7.11221 24.0196 8.36329 -142.418 44.3787 160.514 173.561 84.6065 -125.609 0.402475 -14.0115 -27.0169 -67.5004 45.3135 -68.223 13.8176 19.4318 -36.0095 0.420957 0.000575534 0.35866 -2.3883 8.23776 43.1948 -79.7575 -7.45515 99.4471 6.49539 -11.4263 30.0859 0.58676 0.000331156 0.0646653 -9.9434 8.10273 83.6283 -168.184 46.2713 142.598 -7.51839 2.28227 1.21096 13.2277 -26.3213 4.65336 7.06884 -7.46447 79.4646 122.953 85.3522 -121.201 -11.0956 -8.35642 1.4293 2.69768 -4.32962 -17.5139 
-14.8014 61.0743 -0.284989 79.8142 -22.1526 -0.75107 -70.1915 0 88.8779 162.305 46.831 -72.9876 -7.23626 24.273 7.88283 -144.167 45.4738 161.881 168.119 85.2593 -120.553 0.377545 -14.091 -27.3378 -64.5975 45.1773 -69.4151 13.1617 19.1298 -35.0544 0.420957 0.000575534 0.35866 -2.35477 8.44662 42.0664 -78.0972 -6.86495 99.7521 5.35059 -10.6027 27.4269 0.58676 0.000331156 0.0646653 -12.9921 8.3445 84.4396 -168.141 46.061 141.283 -7.39849 1.62781 1.10016 24.4867 -37.8022 21.0767 9.44096 -7.73407 79.5219 152.704 80.3561 -149.631 -11.3756 -12.2163 1.36222 3.20213 -7.28244 -23.5008 
-13.0409 58.7619 1.49889 79.4172 -21.8077 -0.941585 -70.1915 0 88.8779 163.671 45.8175 -72.851 -7.81311 24.5697 7.52742 -146.696 46.6236 164.004 158.047 85.6778 -111.223 0.35555 -14.1229 -27.7939 -65.2579 45.1677 -67.7056 13.6164 20.0613 -34.7652 0.420957 0.000575534 0.35866 -2.37641 8.75366 41.2988 -84.0881 -7.05545 98.7549 5.88008 -19.3419 24.5716 0.58676 0.000331156 0.0646653 -15.8088 9.00686 83.7924 -168.548 43.846 143.993 -4.88652 -4.57583 -0.0122638 25.1874 -39.2751 19.1927 11.9206 -8.70926 78.9397 161.693 74.9636 -159.727 -12.3278 -15.2115 1.29303 3.07568 -8.74295 -23.438 
-11.6529 56.7475 2.98238 78.8362 -22.2188 -1.20245 -70.1915 0 88.8779 165.146 44.9013 -73.1541 -7.81311 24.9869 7.02773 -149.373 47.3945 165.362 157.693 86.4436 -112.041 0.379491 -13.9263 -28.1039 -63.7017 45.6892 -68.0241 13.1035 20.2786 -33.4212 0.420957 0.000575534 0.35866 -2.46137 8.94027 41.6577 -88.6735 -5.61429 98.4004 4.50734 -25.6007 22.3612 0.58676 0.000331156 0.0646653 -17.9696 10.0316 83.5658 -168.677 41.6508 142.093 -3.51967 -7.91879 -0.503847 28.4253 -39.8763 27.5079 14.4124 -8.7575 78.2811 165.004 70.2481 -162.72 -12.6974 -19.6424 1.1395 3.74434 -4.84583 -26.3264 
-10.4189 54.7053 4.21591 78.2857 -22.3116 -1.0974 -70.1915 0 88.8779 166.356 43.696 -73.1406 -8.3206 25.1525 6.93862 -151.686 48.0605 166.842 151.226 86.7887 -106.17 0.369961 -13.8982 -28.5293 -61.8188 46.5786 -68.35 12.9042 20.8099 -32.3682 0.420957 0.000575534 0.35866 -2.57959 9.25298 41.9665 -91.0118 -4.28093 97.9716 5.18389 -33.5761 21.6416 0.58676 0.000331156 0.0646653 -18.8667 11.108 83.0087 -169.078 39.5463 145.999 -3.02157 -11.1103 -0.875837 29.5669 -41.1137 27.3052 16.3599 -9.25529 77.3053 166.877 66.2604 -164.959 -14.1396 -20.2555 1.04571 3.74612 -5.91127 -27.3563 
-9.39517 52.8708 5.38769 77.3744 -22.1982 -1.85238 -70.1915 0 88.8779 166.715 43.3069 -73.6889 -8.2269 25.3332 6.99172 -153.27 48.3671 167.347 148.923 87.0104 -103.992 0.295376 -14.2392 -28.8564 -59.9327 47.5133 -69.2053 12.5958 21.2355 -31.2315 0.420957 0.000575534 0.35866 -2.67922 9.63832 41.8426 -89.59 -3.02847 97.6044 4.36558 -32.5804 21.2985 0.58676 0.000331156 0.0646653 -18.928 11.3081 82.6221 -169.237 37.5281 145.905 -3.11689 -11.2388 -0.886818 32.7902 -43.0532 30.523 19.0432 -9.67429 77.1669 168.146 62.4877 -166.708 -14.1526 -21.8772 0.966303 3.93513 -3.0483 -26.3266 
-8.49717 51.3885 6.42495 76.7114 -22.0588 -2.60501 -70.1915 0 88.8779 166.741 43.175 -74.0321 -7.83586 25.4702 6.70673 -153.477 48.4556 166.351 152.956 87.3859 -107.671 0.263164 -14.458 -28.6406 -57.8619 48.6572 -70.6638 11.9539 22.2644 -29.8038 0.420957 0.000575534 0.35866 -2.67144 9.50922 42.1519 -87.4758 -1.88677 97.9057 4.22295 -32.3657 21.4174 0.58676 0.000331156 0.0646653 -19.1367 10.9874 81.6551 -169.293 35.9 144.668 -2.98494 -10.5745 -0.819445 32.8061 -42.3916 32.2632 21.011 -10.0794 76.9977 168.961 59.5124 -168.196 -15.1735 -23.1418 0.825384 3.89724 -2.56259 -25.6939 
-7.66469 50.1155 7.28789 75.6393 -21.8876 -3.48318 -70.1915 0 88.8779 166.448 43.4768 -73.8582 -7.46743 25.5082 6.15281 -153.094 48.3404 165.672 151.078 87.1717 -105.826 0.289959 -14.3567 -28.4288 -56.2159 49.2074 -71.533 11.8204 22.7787 -29.512 0.420957 0.000575534 0.35866 -2.68127 9.36408 42.7061 -85.4661 -1.3217 97.9712 5.44164 -32.4621 22.4009 0.58676 0.000331156 0.0646653 -19.1943 10.464 80.7232 -169.342 34.9091 144.233 -3.64772 -10.9383 -0.836621 34.6636 -42.1438 37.2842 23.2953 -10.247 77.1378 169.516 56.811 -169.065 -15.6708 -24.0159 0.731217 3.74301 -3.34581 -25.1295 
-6.86307 49.1807 8.0312 75.0149 -21.5115 -3.97793 -70.1915 0 88.8779 166.614 43.2131 -73.8227 -7.36978 25.6126 5.75276 -153.074 48.5587 165.289 145.584 87.1635 -99.8979 0.283791 -14.3561 -28.5923 -55.4533 49.3861 -71.8458 11.9256 23.121 -29.5035 0.420957 0.000575534 0.35866 -2.52043 9.10787 41.7787 -82.0944 -2.18371 97.9893 6.4054 -29.7914 23.5077 0.58676 0.000331156 0.0646653 -19.5653 9.8588 79.7875 -169.331 34.1354 142.853 -3.34335 -9.7241 -0.712619 37.0807 -43.1135 40.0449 24.7075 -10.3465 77.0708 169.963 54.7632 -170.321 -16.0293 -25.1698 0.62258 3.8841 -2.1762 -25.3347 
-6.14921 48.3353 8.62714 73.9564 -21.1133 -4.98178 -70.1915 0 88.8779 166.156 43.5097 -73.8462 -7.45627 25.532 5.55371 -151.487 48.7828 164.253 134.293 86.6451 -87.6036 0.296138 -14.3541 -28.2807 -55.6486 49.9728 -71.333 12.4007 23.3812 -29.8435 0.420957 0.000575534 0.35866 -2.55757 9.01992 42.4676 -77.0068 -1.476 97.429 7.64709 -25.8009 24.9766 0.58676 0.000331156 0.0646653 -19.4775 8.83312 78.9761 -169.298 33.4486 140.919 -4.37423 -9.95733 -0.695161 37.475 -43.2044 40.6355 26.6324 -10.2185 77.3977 170.416 53.0525 -172.232 -15.3585 -26.9777 0.575965 3.7417 -1.03461 -23.6911 
-5.59352 47.7131 9.18606 73.3522 -20.5985 -5.73633 -70.1915 0 88.8779 165.918 43.3358 -74.0502 -7.40781 25.4993 5.29694 -151.55 49.0338 163.667 129.982 86.7227 -83.2964 0.327366 -14.2531 -27.9339 -54.5508 50.2162 -72.1981 12.3033 22.906 -29.9252 0.420957 0.000575534 0.35866 -2.51174 8.90083 42.3472 -74.4609 -1.74699 97.159 9.38789 -25.3874 26.2262 0.58676 0.000331156 0.0646653 -19.909 7.54515 77.8706 -169.254 33.1125 139.07 -4.70739 -9.43413 -0.617182 38.5969 -44.8822 38.7538 27.898 -10.0338 77.9091 170.621 51.5292 -172.62 -16.3038 -26.9788 0.467928 3.84405 -2.32057 -25.1524 
-5.0151 47.2163 9.63811 72.8932 -19.8812 -6.17529 -70.1915 0 88.8779 165.572 43.1292 -73.9326 -7.3234 25.2425 5.1234 -151.658 49.0699 163.395 129.759 86.8123 -83.1027 0.396126 -13.9152 -27.6769 -54.0025 50.2108 -73.0306 12.2177 23.1303 -29.7693 0.420957 0.000575534 0.35866 -2.50318 8.89753 42.2624 -72.6191 -1.9147 97.1035 10.1334 -24.0062 27.0102 0.58676 0.000331156 0.0646653 -20.4493 6.17791 76.8765 -169.194 32.7259 136.259 -4.66377 -9.18334 -0.588674 39.1749 -44.5488 40.7124 28.7769 -10.1249 78.2545 170.918 50.3563 -174.079 -15.6058 -27.8268 0.49285 3.68915 -2.70494 -24.3051 
